Coordinates
version=1
nRows=8
nColumns=34
inDegrees=yes

Units are S.I. units (second, meters, Newtons, ...)
If the header above contains a line with 'inDegrees', this indicates whether rotational values are in degrees (yes) or radians (no).

endheader
time	pelvis_tilt	pelvis_list	pelvis_rotation	pelvis_tx	pelvis_ty	pelvis_tz	hip_flexion_r	hip_adduction_r	hip_rotation_r	knee_angle_r	ankle_angle_r	subtalar_angle_r	mtp_angle_r	hip_flexion_l	hip_adduction_l	hip_rotation_l	knee_angle_l	ankle_angle_l	subtalar_angle_l	mtp_angle_l	lumbar_extension	lumbar_bending	lumbar_rotation	arm_flex_r	arm_add_r	arm_rot_r	elbow_flex_r	pro_sup_r	arm_flex_l	arm_add_l	arm_rot_l	elbow_flex_l	pro_sup_l
      5.68333330	    -19.61307433	      0.83966190	     -5.12227469	     -2.17901418	      1.14426709	     -0.18147050	     20.09380134	     -1.50012603	     -0.16771310	      1.11960325	      2.98225514	      2.51061595	      0.00000000	     14.62468732	     -3.73954070	    -27.88955421	      0.00000000	      9.93048676	     22.41677313	      0.00000000	     -0.60511945	      5.33368604	      0.93817403	      1.22795327	    -10.77042954	     -0.09286367	     56.65589508	     77.95800099	    -15.83473597	     -6.42781051	      3.07074622	     23.57309065	     60.58154291
      5.70000000	    -18.57122862	      0.69153708	     -4.81408206	     -2.18208474	      1.14522803	     -0.18218141	     19.01064194	     -1.53796923	     -0.33173869	      0.92517685	      2.75283397	      2.36424361	      0.00000000	     13.85709073	     -3.71695909	    -27.32355655	      0.00000000	      9.80224753	     21.98272903	      0.00000000	     -0.88080677	      5.11025593	      1.55198207	      1.82427964	    -10.98753365	     -0.34349876	     55.63111088	     78.12695473	    -15.26921230	     -6.81036304	      3.92891164	     23.30189103	     61.22620470
      5.71666670	    -17.52634665	      0.56897160	     -4.47143462	     -2.18537183	      1.14652245	     -0.18335396	     17.96239044	     -1.61802859	     -0.48816579	      0.80609721	      2.62926672	      2.15749360	      0.00000000	     13.07020263	     -3.64484527	    -26.74797787	      0.00000000	      9.68186352	     21.47270233	      0.00000000	     -1.11684376	      4.89094257	      1.88597603	      2.36015498	    -11.09690780	     -0.56018034	     54.43888210	     78.32972336	    -14.72825892	     -7.14090268	      5.04411552	     22.96211804	     62.07095192
      5.73333330	    -16.63589033	      0.38562448	     -4.12010197	     -2.18869081	      1.14789940	     -0.18449916	     17.13692182	     -1.60856320	     -0.72520166	      0.78611737	      2.36866446	      1.96809253	      0.00000000	     12.43071532	     -3.67618217	    -26.10384297	      0.00000000	      9.62130372	     21.23041984	      0.00000000	     -1.25617859	      4.72200834	      2.42686103	      2.67341115	    -11.33535255	     -0.68971609	     53.36146642	     78.43482041	    -14.14355130	     -7.49240026	      5.64261312	     22.88243924	     62.57967258
      5.75000000	    -15.65194301	      0.22438528	     -3.67749518	     -2.19172154	      1.14933463	     -0.18560330	     16.22465585	     -1.65953889	     -0.95081496	      0.84269665	      2.19542208	      1.71833163	      0.00000000	     11.68602613	     -3.65551349	    -25.42671699	      0.00000000	      9.52755528	     20.90012814	      0.00000000	     -1.48273068	      4.54828504	      2.67300914	      3.03958425	    -11.44176792	     -0.90061198	     52.17927908	     78.51099218	    -13.51465354	     -7.79149720	      6.31819437	     22.75475064	     63.12273838
      5.76666670	    -14.73260726	      0.04826551	     -3.24133456	     -2.19496603	      1.15023109	     -0.18636522	     15.35782599	     -1.67575042	     -1.15382899	      0.87912416	      2.05756041	      1.47983403	      0.00000000	     10.99544901	     -3.67594792	    -24.79370965	      0.00000000	      9.45149992	     20.61930482	      0.00000000	     -1.62373294	      4.40401426	      2.85536486	      3.34364320	    -11.51856910	     -1.09528872	     51.04348202	     78.57005633	    -12.89362429	     -8.07494690	      7.00805750	     22.64937071	     63.66975908
      5.78333330	    -13.94545098	     -0.10511299	     -2.74063332	     -2.19866096	      1.15084026	     -0.18712861	     14.63234375	     -1.71032934	     -1.42568945	      0.91639685	      2.01387684	      1.14139918	      0.00000000	     10.44556064	     -3.68947299	    -24.10100279	      0.00000000	      9.32469487	     20.33291402	      0.00000000	     -1.53007606	      4.25023867	      2.79156516	      3.75007652	    -11.44414204	     -1.23500341	     49.69045862	     78.77480471	    -12.22907386	     -8.51809820	      8.92819849	     22.23125490	     65.29903655
      5.80000000	    -13.31280053	     -0.26969161	     -2.30018735	     -2.20199478	      1.15125597	     -0.18788408	     14.03425869	     -1.68571326	     -1.62049947	      0.87397592	      1.98819361	      0.93431420	      0.00000000	     10.02311869	     -3.76268498	    -23.70109030	      0.00000000	      9.21018067	     20.49494282	      0.00000000	     -1.25800500	      4.08881067	      3.01690618	      3.45801156	    -11.61430556	     -1.26097832	     49.16868171	     78.77966847	    -11.74980758	     -8.74804237	      8.93390745	     22.37222438	     65.38561642
